<?xml version="1.0"?>
<!-- Generated by SVGo -->
<svg width="143.351mm" height="29.051mm"
     viewBox="0.000 0.000 143.351 29.051"
     xmlns="http://www.w3.org/2000/svg" 
     xmlns:xlink="http://www.w3.org/1999/xlink">
<polygon points="138.351,24.051 5.000,24.051 5.000,5.000 138.351,5.000" style="fill:none;stroke-width:0.2;stroke:black"/>
<polygon points="7.525,7.525 7.525,8.525 6.725,8.525 6.725,11.625 7.525,11.625 7.525,17.425 6.725,17.425 6.725,20.525 7.525,20.525 7.525,21.525 21.525,21.525 21.525,20.525 22.325,20.525 22.325,17.425 21.525,17.425 21.525,11.625 22.325,11.625 22.325,8.525 21.525,8.525 21.525,7.525" style="fill:none;stroke-width:0.2;stroke:black"/>
<polygon points="26.575,7.525 26.575,8.525 25.775,8.525 25.775,11.625 26.575,11.625 26.575,17.425 25.775,17.425 25.775,20.525 26.575,20.525 26.575,21.525 40.575,21.525 40.575,20.525 41.375,20.525 41.375,17.425 40.575,17.425 40.575,11.625 41.375,11.625 41.375,8.525 40.575,8.525 40.575,7.525" style="fill:none;stroke-width:0.2;stroke:black"/>
<polygon points="45.625,7.525 45.625,8.525 44.825,8.525 44.825,11.625 45.625,11.625 45.625,17.425 44.825,17.425 44.825,20.525 45.625,20.525 45.625,21.525 59.625,21.525 59.625,20.525 60.425,20.525 60.425,17.425 59.625,17.425 59.625,11.625 60.425,11.625 60.425,8.525 59.625,8.525 59.625,7.525" style="fill:none;stroke-width:0.2;stroke:black"/>
<polygon points="64.675,7.525 64.675,8.525 63.875,8.525 63.875,11.625 64.675,11.625 64.675,17.425 63.875,17.425 63.875,20.525 64.675,20.525 64.675,21.525 78.675,21.525 78.675,20.525 79.475,20.525 79.475,17.425 78.675,17.425 78.675,11.625 79.475,11.625 79.475,8.525 78.675,8.525 78.675,7.525" style="fill:none;stroke-width:0.2;stroke:black"/>
<polygon points="83.725,7.525 83.725,8.525 82.925,8.525 82.925,11.625 83.725,11.625 83.725,17.425 82.925,17.425 82.925,20.525 83.725,20.525 83.725,21.525 97.725,21.525 97.725,20.525 98.524,20.525 98.524,17.425 97.725,17.425 97.725,11.625 98.524,11.625 98.524,8.525 97.725,8.525 97.725,7.525" style="fill:none;stroke-width:0.2;stroke:black"/>
<polygon points="102.774,7.525 102.774,8.525 101.975,8.525 101.975,11.625 102.774,11.625 102.774,17.425 101.975,17.425 101.975,20.525 102.774,20.525 102.774,21.525 116.774,21.525 116.774,20.525 117.574,20.525 117.574,17.425 116.774,17.425 116.774,11.625 117.574,11.625 117.574,8.525 116.774,8.525 116.774,7.525" style="fill:none;stroke-width:0.2;stroke:black"/>
<polygon points="121.824,7.525 121.824,8.525 121.024,8.525 121.024,11.625 121.824,11.625 121.824,17.425 121.024,17.425 121.024,20.525 121.824,20.525 121.824,21.525 135.825,21.525 135.825,20.525 136.625,20.525 136.625,17.425 135.825,17.425 135.825,11.625 136.625,11.625 136.625,8.525 135.825,8.525 135.825,7.525" style="fill:none;stroke-width:0.2;stroke:black"/>
</svg>
